<?xml version="1.0" encoding="UTF-8"?>
<svg width="121px" height="122px" viewBox="0 0 121 122" version="1.1" xmlns="http://www.w3.org/2000/svg" xmlns:xlink="http://www.w3.org/1999/xlink">
    <!-- Generator: Sketch 52.5 (67469) - http://www.bohemiancoding.com/sketch -->
    <title>G</title>
    <desc>Created with Sketch.</desc>
    <g id="Page-1" stroke="none" stroke-width="1" fill="none" fill-rule="evenodd">
        <g id="G" transform="translate(1.000000, 1.000000)" stroke="#000000">
            <g id="Group-Copy-6" transform="translate(0.000000, 61.754386)">
                <ellipse id="Oval" fill="#000000" cx="5.44864865" cy="52.9251012" rx="5.44864865" ry="5.32051282"></ellipse>
                <ellipse id="Oval-Copy" fill="#000000" cx="21.0162162" cy="52.9251012" rx="5.44864865" ry="5.32051282"></ellipse>
                <ellipse id="Oval-Copy-2" fill="#000000" cx="36.0648649" cy="52.9251012" rx="5.44864865" ry="5.32051282"></ellipse>
                <ellipse id="Oval-Copy-3" fill="#000000" cx="51.6324324" cy="52.9251012" rx="5.44864865" ry="5.32051282"></ellipse>
                <ellipse id="Oval-Copy-4" fill="#EA4E33" cx="36.0648649" cy="37.2435897" rx="5.44864865" ry="5.32051282"></ellipse>
                <ellipse id="Oval-Copy-8" fill="#EA4E33" cx="21.0162162" cy="21.0020243" rx="5.44864865" ry="5.32051282"></ellipse>
                <ellipse id="Oval-Copy-9" fill="#000000" cx="5.44864865" cy="5.32051282" rx="5.44864865" ry="5.32051282"></ellipse>
                <ellipse id="Oval-Copy-6" fill="#000000" cx="5.44864865" cy="37.2435897" rx="5.44864865" ry="5.32051282"></ellipse>
                <ellipse id="Oval-Copy-5" fill="#EA4E33" cx="21.0162162" cy="37.2435897" rx="5.44864865" ry="5.32051282"></ellipse>
                <ellipse id="Oval-Copy-7" fill="#000000" cx="5.44864865" cy="21.0020243" rx="5.44864865" ry="5.32051282"></ellipse>
            </g>
            <g id="Group-Copy-7" transform="translate(77.189189, 61.754386)" fill="#000000">
                <ellipse id="Oval" cx="5.44864865" cy="52.9251012" rx="5.44864865" ry="5.32051282"></ellipse>
                <ellipse id="Oval-Copy" cx="21.0162162" cy="52.9251012" rx="5.44864865" ry="5.32051282"></ellipse>
                <ellipse id="Oval-Copy-2" cx="36.0648649" cy="52.9251012" rx="5.44864865" ry="5.32051282"></ellipse>
                <ellipse id="Oval-Copy-4" cx="20.8605405" cy="5.32051282" rx="5.44864865" ry="5.32051282"></ellipse>
                <ellipse id="Oval-Copy-10" cx="36.2724324" cy="5.32051282" rx="5.44864865" ry="5.32051282"></ellipse>
                <ellipse id="Oval-Copy-11" cx="36.8432432" cy="21.0468286" rx="5.44864865" ry="5.32051282"></ellipse>
                <ellipse id="Oval-Copy-12" cx="36.5837838" cy="36.7731444" rx="5.44864865" ry="5.32051282"></ellipse>
                <ellipse id="Oval-Copy-8" cx="21.0162162" cy="21.0020243" rx="5.44864865" ry="5.32051282"></ellipse>
                <ellipse id="Oval-Copy-9" cx="5.44864865" cy="5.32051282" rx="5.44864865" ry="5.32051282"></ellipse>
                <ellipse id="Oval-Copy-6" cx="5.44864865" cy="37.2435897" rx="5.44864865" ry="5.32051282"></ellipse>
                <ellipse id="Oval-Copy-5" cx="21.0162162" cy="37.2435897" rx="5.44864865" ry="5.32051282"></ellipse>
                <ellipse id="Oval-Copy-7" cx="5.44864865" cy="21.0020243" rx="5.44864865" ry="5.32051282"></ellipse>
            </g>
            <g id="Group-Copy-9" transform="translate(46.702703, 0.000000)">
                <ellipse id="Oval" fill="#000000" cx="5.44864865" cy="53.0324287" rx="5.44864865" ry="5.33130236"></ellipse>
                <ellipse id="Oval-Copy" fill="#000000" cx="21.0162162" cy="53.0324287" rx="5.44864865" ry="5.33130236"></ellipse>
                <ellipse id="Oval-Copy-2" fill="#000000" cx="36.0648649" cy="53.0324287" rx="5.44864865" ry="5.33130236"></ellipse>
                <ellipse id="Oval-Copy-10" fill="#000000" cx="51.1135135" cy="53.1895619" rx="5.44864865" ry="5.33130236"></ellipse>
                <ellipse id="Oval-Copy-12" fill="#000000" cx="36.2724324" cy="37.4313545" rx="5.44864865" ry="5.33130236"></ellipse>
                <ellipse id="Oval-Copy-8" fill="#000000" cx="21.0162162" cy="21.0446146" rx="5.44864865" ry="5.33130236"></ellipse>
                <ellipse id="Oval-Copy-9" fill="#000000" cx="5.44864865" cy="5.33130236" rx="5.44864865" ry="5.33130236"></ellipse>
                <ellipse id="Oval-Copy-6" fill="#EA4E33" cx="5.44864865" cy="37.3191165" rx="5.44864865" ry="5.33130236"></ellipse>
                <ellipse id="Oval-Copy-5" fill="#EA4E33" cx="21.0162162" cy="37.3191165" rx="5.44864865" ry="5.33130236"></ellipse>
                <ellipse id="Oval-Copy-7" fill="#000000" cx="5.44864865" cy="21.0446146" rx="5.44864865" ry="5.33130236"></ellipse>
            </g>
            <g id="Group-Copy-10">
                <ellipse id="Oval" fill="#000000" cx="5.44864865" cy="53.0324287" rx="5.44864865" ry="5.33130236"></ellipse>
                <ellipse id="Oval-Copy" fill="#EA4E33" cx="21.0162162" cy="53.0324287" rx="5.44864865" ry="5.33130236"></ellipse>
                <ellipse id="Oval-Copy-2" fill="#000000" cx="36.5837838" cy="53.1895619" rx="5.44864865" ry="5.33130236"></ellipse>
                <ellipse id="Oval-Copy-4" fill="#000000" cx="20.8605405" cy="5.33130236" rx="5.44864865" ry="5.33130236"></ellipse>
                <ellipse id="Oval-Copy-10" fill="#000000" cx="36.8432432" cy="5.33130236" rx="5.44864865" ry="5.33130236"></ellipse>
                <ellipse id="Oval-Copy-11" fill="#000000" cx="36.8432432" cy="21.0895098" rx="5.44864865" ry="5.33130236"></ellipse>
                <ellipse id="Oval-Copy-12" fill="#EA4E33" cx="36.5837838" cy="36.8477172" rx="5.44864865" ry="5.33130236"></ellipse>
                <ellipse id="Oval-Copy-8" fill="#000000" cx="21.0162162" cy="21.0446146" rx="5.44864865" ry="5.33130236"></ellipse>
                <ellipse id="Oval-Copy-9" fill="#000000" cx="5.44864865" cy="5.33130236" rx="5.44864865" ry="5.33130236"></ellipse>
                <ellipse id="Oval-Copy-6" fill="#000000" cx="5.44864865" cy="37.3191165" rx="5.44864865" ry="5.33130236"></ellipse>
                <ellipse id="Oval-Copy-5" fill="#EA4E33" cx="21.0162162" cy="37.3191165" rx="5.44864865" ry="5.33130236"></ellipse>
                <ellipse id="Oval-Copy-7" fill="#000000" cx="5.44864865" cy="21.0446146" rx="5.44864865" ry="5.33130236"></ellipse>
            </g>
            <g id="Group-Copy-8" transform="translate(44.756757, 90.877193) scale(-1, -1) translate(-44.756757, -90.877193) translate(16.216216, 61.754386)">
                <ellipse id="Oval" fill="#EA4E33" cx="5.44864865" cy="52.9251012" rx="5.44864865" ry="5.32051282"></ellipse>
                <ellipse id="Oval-Copy" fill="#EA4E33" cx="21.0162162" cy="52.9251012" rx="5.44864865" ry="5.32051282"></ellipse>
                <ellipse id="Oval-Copy-2" fill="#000000" cx="36.0648649" cy="52.9251012" rx="5.44864865" ry="5.32051282"></ellipse>
                <ellipse id="Oval-Copy-3" fill="#EA4E33" cx="51.6324324" cy="52.9251012" rx="5.44864865" ry="5.32051282"></ellipse>
                <ellipse id="Oval-Copy-4" fill="#000000" cx="36.0648649" cy="37.2435897" rx="5.44864865" ry="5.32051282"></ellipse>
                <ellipse id="Oval-Copy-8" fill="#EA4E33" cx="21.0162162" cy="21.0020243" rx="5.44864865" ry="5.32051282"></ellipse>
                <ellipse id="Oval-Copy-9" fill="#000000" cx="5.44864865" cy="5.32051282" rx="5.44864865" ry="5.32051282"></ellipse>
                <ellipse id="Oval-Copy-6" fill="#EA4E33" cx="5.44864865" cy="37.2435897" rx="5.44864865" ry="5.32051282"></ellipse>
                <ellipse id="Oval-Copy-5" fill="#000000" cx="21.0162162" cy="37.2435897" rx="5.44864865" ry="5.32051282"></ellipse>
                <ellipse id="Oval-Copy-7" fill="#EA4E33" cx="5.44864865" cy="21.0020243" rx="5.44864865" ry="5.32051282"></ellipse>
            </g>
        </g>
    </g>
</svg>