<?xml version="1.0" encoding="UTF-8"?>
<svg width="8855px" height="8118px" viewBox="0 0 8855 8118" version="1.1" xmlns="http://www.w3.org/2000/svg" xmlns:xlink="http://www.w3.org/1999/xlink">
    <!-- Generator: Sketch 52.5 (67469) - http://www.bohemiancoding.com/sketch -->
    <title>Group</title>
    <desc>Created with Sketch.</desc>
    <g id="Page-3" stroke="none" stroke-width="1" fill="none" fill-rule="evenodd">
        <g id="Group" transform="translate(1.000000, 1.000000)">
            <path d="M280.21875,206.8125 C1417.62212,796.012639 3132.05854,2077.42578 5423.528,4051.05193 C5426.1694,4053.32695 5470.7953,4076.7468 5557.40571,4121.31149 C5799.15874,4245.70357 6897.78392,4802.96432 8853.28125,5793.09375 L5715.22656,3456.20313 L4122.30957,8044.18848 L3155.90625,3608.4707 C4284.24902,2213.48372 5075.71533,1228.52686 5530.30518,653.600098 C5984.89502,78.6733398 6238.17871,214.639974 6290.15625,1061.5 L2245.625,6469.68896 C1797.77083,5889.22965 1573.84375,5599 1573.84375,5599 C1573.84375,5599 2531.97087,3856.06315 4448.2251,370.189453 C5785.76974,819.002801 6389.36268,1602.84476 6259.00391,2721.71533 C6128.64514,3840.5859 5139.21236,5637.98581 3290.70557,8113.91504 L6397.8125,6726.4375 L7016.92544,4008.42532 L7412.75,2270.6875 C1510.125,300.286458 -867.385417,-387.671875 280.21875,206.8125 Z" id="Path" stroke-opacity="0.630406476" stroke="#959595" stroke-width="2"></path>
            <circle id="Oval" stroke="#9B9B9B" stroke-width="22" fill="#D8D8D8" cx="4588" cy="3339" r="11"></circle>
            <text id="Master" font-family="Baskerville" font-size="20" font-weight="normal" fill="#525252">
                <tspan x="4663.26758" y="3343">Master</tspan>
            </text>
            <circle id="Oval" stroke="#9B9B9B" stroke-width="22" fill="#D8D8D8" cx="3860" cy="2738" r="11"></circle>
            <text id="Feature" font-family="Baskerville" font-size="20" font-weight="normal" fill="#525252">
                <tspan x="3940.70508" y="2745">Feature</tspan>
            </text>
            <path id="Line" d="M3896.98679,2737.81128 L3933.48889,2737.00012 L3933.98877,2736.98902 L3934.01098,2737.98877 L3933.51111,2737.99988 L3897.00901,2738.81103 L3897.09788,2742.81005 L3888.00012,2738.51111 L3896.89793,2733.81227 L3896.98679,2737.81128 Z" fill="#979797" fill-rule="nonzero"></path>
            <path id="Line-Copy-2" d="M4621.98679,3337.81128 L4658.48889,3337.00012 L4658.98877,3336.98902 L4659.01098,3337.98877 L4658.51111,3337.99988 L4622.00901,3338.81103 L4622.09788,3342.81005 L4613.00012,3338.51111 L4621.89793,3333.81227 L4621.98679,3337.81128 Z" fill="#979797" fill-rule="nonzero"></path>
            <g id="Group-2" transform="translate(3042.000000, 2900.000000)">
                <circle id="Oval" stroke="#9B9B9B" stroke-width="22" fill="#D8D8D8" cx="1128" cy="998" r="11"></circle>
                <text id="Branch" font-family="Baskerville" font-size="20" font-weight="normal" fill="#525252">
                    <tspan x="1202.23242" y="1002">Branch</tspan>
                </text>
                <path id="Line-Copy-2" d="M1161.98679,996.811281 L1198.48889,996.000123 L1198.98877,995.989015 L1199.01098,996.988768 L1198.51111,996.999877 L1162.00901,997.811034 L1162.09788,1001.81005 L1153.00012,997.511108 L1161.89793,992.812268 L1161.98679,996.811281 Z" fill="#979797" fill-rule="nonzero"></path>
                <path d="M2670.82031,2368.53125 L0,0" id="Path-2" stroke="#979797"></path>
            </g>
        </g>
    </g>
</svg>