<?xml version="1.0" encoding="UTF-8"?>
<svg width="8855px" height="8118px" viewBox="0 0 8855 8118" version="1.1" xmlns="http://www.w3.org/2000/svg" xmlns:xlink="http://www.w3.org/1999/xlink">
    <!-- Generator: Sketch 52.5 (67469) - http://www.bohemiancoding.com/sketch -->
    <title>Path</title>
    <desc>Created with Sketch.</desc>
    <g id="Page-1" stroke="none" stroke-width="1" fill="none" fill-rule="evenodd">
        <path d="M281.21875,207.8125 C1418.62212,797.012639 3133.05854,2078.42578 5424.528,4052.05193 C5438.22868,4063.85223 6581.47977,4644.53284 8854.28125,5794.09375 L5716.22656,3457.20313 L4123.30957,8045.18848 L3156.90625,3609.4707 C4285.24902,2214.48372 5076.71533,1229.52686 5531.30518,654.600098 C5985.89502,79.6733398 6239.17871,215.639974 6291.15625,1062.5 L2246.625,6470.68896 C1798.77083,5890.22965 1574.84375,5600 1574.84375,5600 C1574.84375,5600 2532.97087,3857.06315 4449.2251,371.189453 C5786.76974,820.002801 6390.36268,1603.84476 6260.00391,2722.71533 C6129.64514,3841.5859 5140.21236,5638.98581 3291.70557,8114.91504 L6398.8125,6727.4375 L7413.75,2271.6875 C1511.125,301.286458 -866.385417,-386.671875 281.21875,207.8125 Z" id="Path" stroke="#000000" stroke-width="2"></path>
    </g>
</svg>