<?xml version="1.0" encoding="UTF-8"?>
<svg width="8855px" height="8118px" viewBox="0 0 8855 8118" version="1.1" xmlns="http://www.w3.org/2000/svg" xmlns:xlink="http://www.w3.org/1999/xlink">
    <!-- Generator: Sketch 52.5 (67469) - http://www.bohemiancoding.com/sketch -->
    <title>Group</title>
    <desc>Created with Sketch.</desc>
    <g id="Page-1" stroke="none" stroke-width="1" fill="none" fill-rule="evenodd">
        <g id="Group" transform="translate(1.000000, 1.000000)">
            <path d="M280.21875,206.8125 C1417.62212,796.012639 3132.05854,2077.42578 5423.528,4051.05193 C5426.1694,4053.32695 5470.7953,4076.7468 5557.40571,4121.31149 C5799.15874,4245.70357 6897.78392,4802.96432 8853.28125,5793.09375 L5715.22656,3456.20313 L4122.30957,8044.18848 L3155.90625,3608.4707 C4284.24902,2213.48372 5075.71533,1228.52686 5530.30518,653.600098 C5984.89502,78.6733398 6238.17871,214.639974 6290.15625,1061.5 L2245.625,6469.68896 C1797.77083,5889.22965 1573.84375,5599 1573.84375,5599 C1573.84375,5599 2531.97087,3856.06315 4448.2251,370.189453 C5785.76974,819.002801 6389.36268,1602.84476 6259.00391,2721.71533 C6128.64514,3840.5859 5139.21236,5637.98581 3290.70557,8113.91504 L6397.8125,6726.4375 L7016.92544,4008.42532 L7412.75,2270.6875 C1510.125,300.286458 -867.385417,-387.671875 280.21875,206.8125 Z" id="Path" stroke="#000000" stroke-width="2"></path>
            <circle id="Oval" stroke="#9B9B9B" stroke-width="29" fill="#D8D8D8" cx="4585" cy="3333" r="40"></circle>
            <path d="M4659,3332.5 C4697.37032,3332.5 4730.22156,3332.5 4757.55371,3332.5" id="Path-2" stroke="#4B4B4B" stroke-width="4"></path>
            <text id="Master" font-family="Baskerville" font-size="56" font-weight="normal" fill="#525252">
                <tspan x="4774.44922" y="3350">Master</tspan>
            </text>
        </g>
    </g>
</svg>